<svg xmlns="http://www.w3.org/2000/svg" xmlns:xlink="http://www.w3.org/1999/xlink" viewBox="0 0 1482 1050">  <style>    svg { font : caption; }      .idvcchart_axis { fill: none; stroke: gray; stroke-width: 1; vector-effect: non-scaling-stroke; shape-rendering: crispEdges; }      .idvcchart_axis_text { fill: #333; font-size: 95%; stroke: none; stroke-width: 1; vector-effect: non-scaling-stroke; }      .idvcchart_roofline_text { fill: gray; font-size: 90%; }      .idvcchart_roofline_text.selected { fill: #000; }      .idvcchart_roofline_text.hidden { fill: none; }      .idvcchart_roofline_explanation { fill: none; }      .idvcchart_roofline_center_marker { stroke: #000; stroke-width: 1 }      .roofline_child_line { stroke: none; fill: none; }      .roofline_parent_line { stroke: none; fill: none; }      .roofline_child_arrow { stroke: none; fill: none; }      .roofline_parent_arrow { stroke: none; fill: none; }      .roofline_loop { stroke: #000; stroke-width: 1; vector-effect: non-scaling-stroke; shape-rendering: geometricPrecision; fill: lightgray; }      .roofline_loop.no_loop_position { stroke: darkgray; fill: #eee; }      .roofline_loop.loop_inactive_result { opacity: 0.4; }      .idvcroofline_line { stroke: #999; stroke-dasharray: 4,4; fill: none; stroke-width: 1; vector-effect: non-scaling-stroke; shape-rendering: crispEdges; }      .idvcroofline_grid_line { stroke: #ddd; fill: none; stroke-width: 1; vector-effect: non-scaling-stroke; shape-rendering: crispEdges; }      .idvcroofline_line.selected { stroke: #000; shape-rendering: auto; stroke-dasharray: none; }      .idvcroofline_line_hotarea { stroke: none; fill: none; }      .roofline_roofs_cross { stroke: none; fill: none; }      .roofline_coord_line { stroke: none; fill: none; stroke-width: 1; vector-effect: non-scaling-stroke; shape-rendering: crispEdges; }      .roofline_coord_line.selected { stroke: gray; stroke-dasharray: none !important; }      .roofline_expander { stroke: none; fill: none; }      .roofline_expander_vert_line { stroke: none; fill: none; }      .roofline_expander_horz_line { stroke: none; fill: none; }      .idvcroofline_roof_crossing { stroke: none; fill: none; }      .idvcroofline_roof_crossing_line { stroke: none; fill: none; }      .idvcroofline_roof_crossing_label { stroke: none; fill: none; }      .idvcroofline_loops_matching_line { stroke: black; stroke-dasharray: 4,4; fill: none; vector-effect: non-scaling-stroke; shape-rendering: crispEdges; }      .idvcroofline_loops_matching_arrow { stroke: #000; fill: black; vector-effect: non-scaling-stroke; shape-rendering: geometricPrecision; }      .idvcroofline_loops_matching_label { font-size: 100%; }      .idvcroofline_total_value_tick_active { stroke: none; fill: none; }      .idvcroofline_total_value_tick { stroke: none; fill: none; }      .stairs_delta_line {stroke-width: 2;vector-effect: non-scaling-stroke;shape-rendering: geometricPrecision;}      .stairs_connection_line {stroke: black;stroke-width: 1;stroke-dasharray: 2,2;vector-effect: non-scaling-stroke;shape-rendering: geometricPrecision;}      .stairs_delta_ends {stroke-width: 3;vector-effect: non-scaling-stroke;shape-rendering: geometricPrecision;}      .dumbbell_line {stroke: #2D3741;stroke-width: 1.5;fill: none;vector-effect: non-scaling-stroke;shape-rendering: geometricPrecision;}      .idvc_hidden { stroke: none !important; fill: none !important; }  </style>  <g>    <svg id="vert_axis" viewBox="0 0 60 1026" width="60" height="1026">      <line x1="59.5625" y1="0" x2="59.5625" y2="1026" class="idvcchart_axis"></line><line x1="54.0625" y1="870" x2="60.0625" y2="870" class="idvcchart_axis"></line><line x1="54.0625" y1="870" x2="60.0625" y2="870" class="idvcchart_axis_hot"></line><text x="50.0625" y="870" class="idvcchart_axis_text" style="text-anchor: end;dominant-baseline: middle">0.01</text><line x1="54.0625" y1="674" x2="60.0625" y2="674" class="idvcchart_axis"></line><line x1="54.0625" y1="674" x2="60.0625" y2="674" class="idvcchart_axis_hot"></line><text x="50.0625" y="674" class="idvcchart_axis_text" style="text-anchor: end;dominant-baseline: middle">0.1</text><line x1="54.0625" y1="478" x2="60.0625" y2="478" class="idvcchart_axis"></line><line x1="54.0625" y1="478" x2="60.0625" y2="478" class="idvcchart_axis_hot"></line><text x="50.0625" y="478" class="idvcchart_axis_text" style="text-anchor: end;dominant-baseline: middle">1</text><line x1="54.0625" y1="283" x2="60.0625" y2="283" class="idvcchart_axis"></line><line x1="54.0625" y1="283" x2="60.0625" y2="283" class="idvcchart_axis_hot"></line><text x="50.0625" y="283" class="idvcchart_axis_text" style="text-anchor: end;dominant-baseline: middle">10</text><line x1="54.0625" y1="87" x2="60.0625" y2="87" class="idvcchart_axis"></line><line x1="54.0625" y1="87" x2="60.0625" y2="87" class="idvcchart_axis_hot"></line><text x="50.0625" y="87" class="idvcchart_axis_text" style="text-anchor: end;dominant-baseline: middle">100</text><defs><marker id="SVG_1_TotalValue" markerWidth="6" markerHeight="10" refX="1" refY="5" orient="auto" markerUnits="userSpaceOnUse"><path d="M 0 0 L 0 10 L 6 5 L 0 0" class="idvcroofline_total_value_tick"></path></marker><marker id="SVG_1_TotalValueActive" markerWidth="6" markerHeight="10" refX="1" refY="5" orient="auto" markerUnits="userSpaceOnUse"><path d="M 0 0 L 0 10 L 6 5 L 0 0" class="idvcroofline_total_value_tick_active"></path></marker></defs><line x1="54.0625" y1="886" x2="60.0625" y2="886" class="idvcchart_axis idvc_active" style="stroke: transparent; stroke-width:10; marker-start:url(#SVG_1_TotalValue)" ></line><line x1="54.0625" y1="886" x2="60.0625" y2="886" class="idvcchart_axis_hot"></line><text x="50.0625" y="886" class="" style="text-anchor: end;dominant-baseline: middle" fill="none">0.0082</text>    </svg>  </g>  <g transform="translate(60, 1026)">    <svg id="horz_axis" viewBox="0 0 1422 24" width="1422" height="24">      <line x1="0" y1="0.5" x2="1421.53125" y2="0.5" class="idvcchart_axis"></line><line x1="90" y1="6" x2="90" y2="0" class="idvcchart_axis"></line><line x1="90" y1="6" x2="90" y2="0" class="idvcchart_axis_hot"></line><text x="90" y="10" class="idvcchart_axis_text" style="text-anchor: middle; dominant-baseline:text-before-edge;"> 0.001 </text><line x1="388" y1="6" x2="388" y2="0" class="idvcchart_axis"></line><line x1="388" y1="6" x2="388" y2="0" class="idvcchart_axis_hot"></line><text x="388" y="10" class="idvcchart_axis_text" style="text-anchor: middle; dominant-baseline:text-before-edge;"> 0.01 </text><line x1="686" y1="6" x2="686" y2="0" class="idvcchart_axis"></line><line x1="686" y1="6" x2="686" y2="0" class="idvcchart_axis_hot"></line><text x="686" y="10" class="idvcchart_axis_text" style="text-anchor: middle; dominant-baseline:text-before-edge;"> 0.1 </text><line x1="984" y1="6" x2="984" y2="0" class="idvcchart_axis"></line><line x1="984" y1="6" x2="984" y2="0" class="idvcchart_axis_hot"></line><text x="984" y="10" class="idvcchart_axis_text" style="text-anchor: middle; dominant-baseline:text-before-edge;"> 1 </text><line x1="1283" y1="6" x2="1283" y2="0" class="idvcchart_axis"></line><line x1="1283" y1="6" x2="1283" y2="0" class="idvcchart_axis_hot"></line><text x="1283" y="10" class="idvcchart_axis_text" style="text-anchor: middle; dominant-baseline:text-before-edge;"> 10 </text><defs><marker id="SVG_2_TotalValue" markerWidth="6" markerHeight="10" refX="1" refY="5" orient="auto" markerUnits="userSpaceOnUse"><path d="M 0 0 L 0 10 L 6 5 L 0 0" class="idvcroofline_total_value_tick"></path></marker><marker id="SVG_2_TotalValueActive" markerWidth="6" markerHeight="10" refX="1" refY="5" orient="auto" markerUnits="userSpaceOnUse"><path d="M 0 0 L 0 10 L 6 5 L 0 0" class="idvcroofline_total_value_tick_active"></path></marker></defs><line x1="118" y1="6" x2="118" y2="0" class="idvcchart_axis idvc_active" style="stroke: transparent; stroke-width:10; marker-start:url(#SVG_2_TotalValue)" ></line><line x1="118" y1="6" x2="118" y2="0" class="idvcchart_axis_hot"></line><text x="118" y="10" class="" style="text-anchor: middle; dominant-baseline:text-before-edge;" fill="none"> 0.0012 </text>    </svg>  </g>  <g transform="translate(60, 0)">    <svg id="roofline_content" viewBox="0 0 1422 1026" width="1422" height="1026">      <g id="SVG_0_BackgroundLayer"><polygon fill="rgb(160, 30, 30)" style="opacity:0.14" points="1303,1026 1303,85 1422,85 1422,1026"></polygon><polygon fill="rgb(200, 40, 40)" style="opacity:0.1" points="499,1026 499,262 768,85 1303,85 1303,1026"></polygon><polygon fill="rgb(240, 50, 50)" style="opacity:0.06" points="0,1026 0,589 499,262 499,1026"></polygon><line class="idvcroofline_total_line" x1="118" y1="1026" x2="118" y2="0"></line><line class="idvcroofline_grid_line" x1="1283" y1="1026" x2="1283" y2="0"></line><line class="idvcroofline_grid_line" x1="984" y1="1026" x2="984" y2="0"></line><line class="idvcroofline_grid_line" x1="686" y1="1026" x2="686" y2="0"></line><line class="idvcroofline_grid_line" x1="388" y1="1026" x2="388" y2="0"></line><line class="idvcroofline_grid_line" x1="90" y1="1026" x2="90" y2="0"></line><line class="idvcroofline_total_line" x1="0" y1="886" x2="1422" y2="886"></line><line class="idvcroofline_grid_line" x1="0" y1="870" x2="1422" y2="870"></line><line class="idvcroofline_grid_line" x1="0" y1="674" x2="1422" y2="674"></line><line class="idvcroofline_grid_line" x1="0" y1="478" x2="1422" y2="478"></line><line class="idvcroofline_grid_line" x1="0" y1="283" x2="1422" y2="283"></line><line class="idvcroofline_grid_line" x1="0" y1="87" x2="1422" y2="87"></line><line class="idvcroofline_line_hotarea idvc_active" x1="0" y1="589" x2="768" y2="85"></line><line class="idvcroofline_line_hotarea idvc_active" x1="0" y1="685" x2="914" y2="85"></line><line class="idvcroofline_line_hotarea idvc_active" x1="0" y1="734" x2="988" y2="85"></line><line class="idvcroofline_line_hotarea idvc_active" x1="0" y1="941" x2="1303" y2="85"></line><line class="idvcroofline_line_hotarea idvc_active" x1="768" y1="85" x2="1422" y2="85"></line><line class="idvcroofline_line_hotarea idvc_active" x1="678" y1="144" x2="1422" y2="144"></line><line class="idvcroofline_line_hotarea idvc_active" x1="499" y1="262" x2="1422" y2="262"></line><text style="text-anchor: middle;opacity:0.6" fill="rgb(160, 0, 0)" x="253.5" y="992"></text><text style="text-anchor: middle;opacity:0.6" fill="rgb(160, 0, 0)" x="253.5" y="1010">Memory bound</text><text style="text-anchor: middle;opacity:0.6" fill="rgb(160, 0, 0)" x="905" y="992">Bound by compute</text><text style="text-anchor: middle;opacity:0.6" fill="rgb(160, 0, 0)" x="905" y="1010">and memory roofs</text><text style="text-anchor: middle;opacity:0.6" fill="rgb(160, 0, 0)" x="1366.5" y="992"></text><text style="text-anchor: middle;opacity:0.6" fill="rgb(160, 0, 0)" x="1366.5" y="1010">Compute bound</text></g><g id="SVG_0_LoopsLayer"><circle class="roofline_loop idvc_active idvcroofline_point_current idvcroofline_point_selected" cx="385" cy="719" r="6" style="fill:yellow !important" ></circle></g><g id="SVG_0_RoofsLayer"><line class="idvcroofline_line DPVectorFMAPeak selected" x1="768" y1="85" x2="1422" y2="85"></line><line class="idvcroofline_line DPVectorAddPeak" x1="678" y1="144" x2="1422" y2="144"></line><line class="idvcroofline_line ScalarAddPeak" x1="499" y1="262" x2="1422" y2="262"></line><rect x="496" y="259" width="6" height="6" class="roofline_roofs_cross idvc_active"></rect><line x1="499" y1="265" x2="499" y2="1026" class="roofline_coord_line"></line><rect x="642" y="259" width="6" height="6" class="roofline_roofs_cross idvc_active"></rect><line x1="645" y1="265" x2="645" y2="1026" class="roofline_coord_line"></line><rect x="716" y="259" width="6" height="6" class="roofline_roofs_cross idvc_active"></rect><line x1="719" y1="265" x2="719" y2="1026" class="roofline_coord_line"></line><rect x="1031" y="259" width="6" height="6" class="roofline_roofs_cross idvc_active"></rect><line x1="1034" y1="265" x2="1034" y2="1026" class="roofline_coord_line"></line><rect x="675" y="141" width="6" height="6" class="roofline_roofs_cross idvc_active"></rect><line x1="678" y1="147" x2="678" y2="1026" class="roofline_coord_line"></line><rect x="821" y="141" width="6" height="6" class="roofline_roofs_cross idvc_active"></rect><line x1="824" y1="147" x2="824" y2="1026" class="roofline_coord_line"></line><rect x="895" y="141" width="6" height="6" class="roofline_roofs_cross idvc_active"></rect><line x1="898" y1="147" x2="898" y2="1026" class="roofline_coord_line"></line><rect x="1210" y="141" width="6" height="6" class="roofline_roofs_cross idvc_active"></rect><line x1="1213" y1="147" x2="1213" y2="1026" class="roofline_coord_line"></line><rect x="765" y="82" width="6" height="6" class="roofline_roofs_cross idvc_active"></rect><line x1="768" y1="88" x2="768" y2="1026" class="roofline_coord_line"></line><rect x="911" y="82" width="6" height="6" class="roofline_roofs_cross idvc_active"></rect><line x1="914" y1="88" x2="914" y2="1026" class="roofline_coord_line"></line><rect x="985" y="82" width="6" height="6" class="roofline_roofs_cross idvc_active"></rect><line x1="988" y1="88" x2="988" y2="1026" class="roofline_coord_line"></line><rect x="1300" y="82" width="6" height="6" class="roofline_roofs_cross idvc_active"></rect><line x1="1303" y1="88" x2="1303" y2="1026" class="roofline_coord_line"></line><line class="idvcroofline_line L3Bandwidth" x1="0" y1="734" x2="988" y2="85" style=""></line><line class="idvcroofline_line L2Bandwidth" x1="0" y1="685" x2="914" y2="85" style=""></line><line class="idvcroofline_line L1Bandwidth" x1="0" y1="589" x2="768" y2="85" style=""></line><line class="idvcroofline_line selected" x1="0" y1="589" x2="768" y2="85" style=""></line><line class="idvcroofline_line DRAMBandwidth" x1="0" y1="941" x2="1303" y2="85" style=""></line></g><g id="SVG_0_RoofsTextLayer"><text class="idvcchart_roofline_text selected" x="0" y="0" style="text-anchor: end; dominant-baseline:text-after-edge;" transform="matrix(1 0 0 1 1418 84)">DP Vector FMA Peak: 101.92 GFLOPS</text><text class="idvcchart_roofline_text" x="0" y="0" style="text-anchor: end; dominant-baseline:text-after-edge;" transform="matrix(1 0 0 1 1418 143)">DP Vector Add Peak: 50.93 GFLOPS</text><text class="idvcchart_roofline_text" x="0" y="0" style="text-anchor: end; dominant-baseline:text-after-edge;" transform="matrix(1 0 0 1 1418 261)">Scalar Add Peak: 12.75 GFLOPS</text><text class="idvcchart_roofline_text" x="0" y="0" style="dominant-baseline:text-after-edge;" transform="matrix(0.835805 -0.549026 0.549026 0.835805 9.37546 726.645)">L3 Bandwidth: 99.15 GB/sec</text><text class="idvcchart_roofline_text" x="0" y="0" style="dominant-baseline:text-after-edge;" transform="matrix(0.835969 -0.548776 0.548776 0.835969 9.38621 677.642)">L2 Bandwidth: 175.3 GB/sec</text><text class="idvcchart_roofline_text selected" x="0" y="0" style="dominant-baseline:text-after-edge;" transform="matrix(0.836048 -0.548656 0.548656 0.836048 9.37847 581.649)">L1 Bandwidth: 542.9 GB/sec</text><text class="idvcchart_roofline_text" x="0" y="0" style="dominant-baseline:text-after-edge;" transform="matrix(0.835781 -0.549063 0.549063 0.835781 9.35173 933.66)">DRAM Bandwidth: 8.7 GB/sec</text></g><g id="SVG_0_ForegroundLayer"><line x1="98" y1="886" x2="138" y2="886" class="idvcchart_roofline_center_marker"></line><line x1="118" y1="866" x2="118" y2="906" class="idvcchart_roofline_center_marker"></line><use xlink:href="#SVG_0_expanderTemplate" class="roofline_expander idvc_active" x="-118.25" y="-105.5"></use><text class="idvcroofline_roof_crossing_label" x="-100" y="-100" filter="url(#SVG_0_TextBackground)" style="text-anchor:end; dominant-baseline: middle;"><tspan class="idvcroofline_roof_crossing_label_value">5.28</tspan><tspan class="idvcroofline_roof_crossing_label_measure"> GFLOPS </tspan><tspan class="idvcroofline_roof_crossing_label_gain_x">(</tspan><tspan class="idvcroofline_roof_crossing_label_gain">89.4</tspan><tspan class="idvcroofline_roof_crossing_label_gain_x">x)</tspan></text><text class="idvcroofline_roof_crossing_label" x="-100" y="-100" filter="url(#SVG_0_TextBackground)" style="text-anchor:end; dominant-baseline: middle;"><tspan class="idvcroofline_roof_crossing_label_value">0.085</tspan><tspan class="idvcroofline_roof_crossing_label_measure"> GFLOPS </tspan><tspan class="idvcroofline_roof_crossing_label_gain_x">(</tspan><tspan class="idvcroofline_roof_crossing_label_gain">1.4</tspan><tspan class="idvcroofline_roof_crossing_label_gain_x">x)</tspan></text><use xlink:href="#SVG_0_crossingTemplate" class="idvcroofline_roof_crossing" x="-100" y="-100"></use><use xlink:href="#SVG_0_crossingTemplate" class="idvcroofline_roof_crossing" x="-100" y="-100"></use><line x1="-100" y1="0" x2="-100" y2="0" class="idvcroofline_roof_crossing_line"></line></g><rect x="0" y="0" width="0" height="0" class="idvcchart_selection"></rect><defs><filter id="SVG_0_TextBackground" x="0" y="0" width="1" height="1"><feFlood flood-color="white"></feFlood><feComposite in="SourceGraphic"></feComposite></filter></defs><defs id="SVG_0_line_arrows"><marker id="SVG_0_loops_matching_arrow" markerWidth="9" markerHeight="9" refX="9" refY="5" orient="auto"><path d="M 1 1 L 1 8 L 8 5 L 1 1" class="idvcroofline_loops_matching_arrow"></path></marker><marker id="SVG_0_ChildArrow" markerWidth="9" markerHeight="9" refX="9" refY="5" orient="auto"><path d="M 1 1 L 1 8 L 8 5 L 1 1" class="roofline_child_arrow"></path></marker><marker id="SVG_0_ParentArrow" markerWidth="9" markerHeight="9" refX="0" refY="5" orient="auto"><path d="M 1 1 L 1 8 L 8 5 L 1 1" class="roofline_parent_arrow"></path></marker></defs><defs id="SVG_0_fill_patterns"><pattern id="SVG_0_loopFill-8-6-cl" patternContentUnits="objectBoundingBox" width="100%" height="100%"><circle cx=".5" cy=".5" r=".5" fill="white"></circle><circle cx=".5" cy=".5" r="0.375" fill="yellow" stroke="black" stroke-width="0.05"></circle></pattern></defs><defs><g id="SVG_0_expanderTemplate"><rect x="0" y="0" width="11" height="11" class=""></rect><line x1="2" y1="5.5" x2="9" y2="5.5" class=""></line><line x1="5.5" y1="2" x2="5.5" y2="9" class=""></line></g></defs><defs><line id="SVG_0_crossingTemplate" x1="-4" y1="-4" x2="4" y2="4"></line></defs><text x="2" y="2" style="font-size: 90%; writing-mode: tb; dominant-baseline: text-after-edge">GFLOPS</text><text x="1418" y="1024" style="font-size: 90%; text-anchor: end; dominant-baseline: text-after-edge"><tspan>FLOP/Byte</tspan><tspan style="font-size: 90%;"> (Arithmetic Intensity)</tspan></text>    </svg>  </g>  </svg>