<svg xmlns="http://www.w3.org/2000/svg" xmlns:xlink="http://www.w3.org/1999/xlink" viewBox="0 0 1482 1050">  <style>    svg { font : caption; }      .idvcchart_axis { fill: none; stroke: gray; stroke-width: 1; vector-effect: non-scaling-stroke; shape-rendering: crispEdges; }      .idvcchart_axis_text { fill: #333; font-size: 95%; stroke: none; stroke-width: 1; vector-effect: non-scaling-stroke; }      .idvcchart_roofline_text { fill: gray; font-size: 90%; }      .idvcchart_roofline_text.selected { fill: #000; }      .idvcchart_roofline_text.hidden { fill: none; }      .idvcchart_roofline_explanation { fill: none; }      .idvcchart_roofline_center_marker { stroke: #000; stroke-width: 1 }      .roofline_child_line { stroke: none; fill: none; }      .roofline_parent_line { stroke: none; fill: none; }      .roofline_child_arrow { stroke: none; fill: none; }      .roofline_parent_arrow { stroke: none; fill: none; }      .roofline_loop { stroke: #000; stroke-width: 1; vector-effect: non-scaling-stroke; shape-rendering: geometricPrecision; fill: lightgray; }      .roofline_loop.no_loop_position { stroke: darkgray; fill: #eee; }      .roofline_loop.loop_inactive_result { opacity: 0.4; }      .idvcroofline_line { stroke: #999; stroke-dasharray: 4,4; fill: none; stroke-width: 1; vector-effect: non-scaling-stroke; shape-rendering: crispEdges; }      .idvcroofline_grid_line { stroke: #ddd; fill: none; stroke-width: 1; vector-effect: non-scaling-stroke; shape-rendering: crispEdges; }      .idvcroofline_line.selected { stroke: #000; shape-rendering: auto; stroke-dasharray: none; }      .idvcroofline_line_hotarea { stroke: none; fill: none; }      .roofline_roofs_cross { stroke: none; fill: none; }      .roofline_coord_line { stroke: none; fill: none; stroke-width: 1; vector-effect: non-scaling-stroke; shape-rendering: crispEdges; }      .roofline_coord_line.selected { stroke: gray; stroke-dasharray: none !important; }      .roofline_expander { stroke: none; fill: none; }      .roofline_expander_vert_line { stroke: none; fill: none; }      .roofline_expander_horz_line { stroke: none; fill: none; }      .idvcroofline_roof_crossing { stroke: none; fill: none; }      .idvcroofline_roof_crossing_line { stroke: none; fill: none; }      .idvcroofline_roof_crossing_label { stroke: none; fill: none; }      .idvcroofline_loops_matching_line { stroke: black; stroke-dasharray: 4,4; fill: none; vector-effect: non-scaling-stroke; shape-rendering: crispEdges; }      .idvcroofline_loops_matching_arrow { stroke: #000; fill: black; vector-effect: non-scaling-stroke; shape-rendering: geometricPrecision; }      .idvcroofline_loops_matching_label { font-size: 100%; }      .idvcroofline_total_value_tick_active { stroke: none; fill: none; }      .idvcroofline_total_value_tick { stroke: none; fill: none; }      .stairs_delta_line {stroke-width: 2;vector-effect: non-scaling-stroke;shape-rendering: geometricPrecision;}      .stairs_connection_line {stroke: black;stroke-width: 1;stroke-dasharray: 2,2;vector-effect: non-scaling-stroke;shape-rendering: geometricPrecision;}      .stairs_delta_ends {stroke-width: 3;vector-effect: non-scaling-stroke;shape-rendering: geometricPrecision;}      .dumbbell_line {stroke: #2D3741;stroke-width: 1.5;fill: none;vector-effect: non-scaling-stroke;shape-rendering: geometricPrecision;}      .idvc_hidden { stroke: none !important; fill: none !important; }  </style>  <g>    <svg id="vert_axis" viewBox="0 0 60 1026" width="60" height="1026">      <line x1="59.5625" y1="0" x2="59.5625" y2="1026" class="idvcchart_axis"></line><line x1="54.0625" y1="897" x2="60.0625" y2="897" class="idvcchart_axis"></line><line x1="54.0625" y1="897" x2="60.0625" y2="897" class="idvcchart_axis_hot"></line><text x="50.0625" y="897" class="idvcchart_axis_text" style="text-anchor: end;dominant-baseline: middle">0.01</text><line x1="54.0625" y1="678" x2="60.0625" y2="678" class="idvcchart_axis"></line><line x1="54.0625" y1="678" x2="60.0625" y2="678" class="idvcchart_axis_hot"></line><text x="50.0625" y="678" class="idvcchart_axis_text" style="text-anchor: end;dominant-baseline: middle">0.1</text><line x1="54.0625" y1="459" x2="60.0625" y2="459" class="idvcchart_axis"></line><line x1="54.0625" y1="459" x2="60.0625" y2="459" class="idvcchart_axis_hot"></line><text x="50.0625" y="459" class="idvcchart_axis_text" style="text-anchor: end;dominant-baseline: middle">1</text><line x1="54.0625" y1="240" x2="60.0625" y2="240" class="idvcchart_axis"></line><line x1="54.0625" y1="240" x2="60.0625" y2="240" class="idvcchart_axis_hot"></line><text x="50.0625" y="240" class="idvcchart_axis_text" style="text-anchor: end;dominant-baseline: middle">10</text><line x1="54.0625" y1="21" x2="60.0625" y2="21" class="idvcchart_axis"></line><line x1="54.0625" y1="21" x2="60.0625" y2="21" class="idvcchart_axis_hot"></line><text x="50.0625" y="21" class="idvcchart_axis_text" style="text-anchor: end;dominant-baseline: middle">100</text><defs><marker id="SVG_1_TotalValue" markerWidth="6" markerHeight="10" refX="1" refY="5" orient="auto" markerUnits="userSpaceOnUse"><path d="M 0 0 L 0 10 L 6 5 L 0 0" class="idvcroofline_total_value_tick"></path></marker><marker id="SVG_1_TotalValueActive" markerWidth="6" markerHeight="10" refX="1" refY="5" orient="auto" markerUnits="userSpaceOnUse"><path d="M 0 0 L 0 10 L 6 5 L 0 0" class="idvcroofline_total_value_tick_active"></path></marker></defs><line x1="54.0625" y1="916" x2="60.0625" y2="916" class="idvcchart_axis idvc_active" style="stroke: transparent; stroke-width:10; marker-start:url(#SVG_1_TotalValue)" ></line><line x1="54.0625" y1="916" x2="60.0625" y2="916" class="idvcchart_axis_hot"></line><text x="50.0625" y="916" class="" style="text-anchor: end;dominant-baseline: middle" fill="none">0.0082</text>    </svg>  </g>  <g transform="translate(60, 1026)">    <svg id="horz_axis" viewBox="0 0 1422 24" width="1422" height="24">      <line x1="0" y1="0.5" x2="1421.53125" y2="0.5" class="idvcchart_axis"></line><line x1="87" y1="6" x2="87" y2="0" class="idvcchart_axis"></line><line x1="87" y1="6" x2="87" y2="0" class="idvcchart_axis_hot"></line><text x="87" y="10" class="idvcchart_axis_text" style="text-anchor: middle; dominant-baseline:text-before-edge;"> 0.001 </text><line x1="420" y1="6" x2="420" y2="0" class="idvcchart_axis"></line><line x1="420" y1="6" x2="420" y2="0" class="idvcchart_axis_hot"></line><text x="420" y="10" class="idvcchart_axis_text" style="text-anchor: middle; dominant-baseline:text-before-edge;"> 0.01 </text><line x1="754" y1="6" x2="754" y2="0" class="idvcchart_axis"></line><line x1="754" y1="6" x2="754" y2="0" class="idvcchart_axis_hot"></line><text x="754" y="10" class="idvcchart_axis_text" style="text-anchor: middle; dominant-baseline:text-before-edge;"> 0.1 </text><line x1="1088" y1="6" x2="1088" y2="0" class="idvcchart_axis"></line><line x1="1088" y1="6" x2="1088" y2="0" class="idvcchart_axis_hot"></line><text x="1088" y="10" class="idvcchart_axis_text" style="text-anchor: middle; dominant-baseline:text-before-edge;"> 1 </text><line x1="1421" y1="6" x2="1421" y2="0" class="idvcchart_axis"></line><line x1="1421" y1="6" x2="1421" y2="0" class="idvcchart_axis_hot"></line><text x="1415.1875" y="10" class="idvcchart_axis_text" style="text-anchor: middle; dominant-baseline:text-before-edge;"> 10 </text><defs><marker id="SVG_2_TotalValue" markerWidth="6" markerHeight="10" refX="1" refY="5" orient="auto" markerUnits="userSpaceOnUse"><path d="M 0 0 L 0 10 L 6 5 L 0 0" class="idvcroofline_total_value_tick"></path></marker><marker id="SVG_2_TotalValueActive" markerWidth="6" markerHeight="10" refX="1" refY="5" orient="auto" markerUnits="userSpaceOnUse"><path d="M 0 0 L 0 10 L 6 5 L 0 0" class="idvcroofline_total_value_tick_active"></path></marker></defs><line x1="118" y1="6" x2="118" y2="0" class="idvcchart_axis idvc_active" style="stroke: transparent; stroke-width:10; marker-start:url(#SVG_2_TotalValue)" ></line><line x1="118" y1="6" x2="118" y2="0" class="idvcchart_axis_hot"></line><text x="118" y="10" class="" style="text-anchor: middle; dominant-baseline:text-before-edge;" fill="none"> 0.0012 </text>    </svg>  </g>  <g transform="translate(60, 0)">    <svg id="roofline_content" viewBox="0 0 1422 1026" width="1422" height="1026">      <g id="SVG_0_BackgroundLayer"><polygon fill="rgb(160, 30, 30)" style="opacity:0.14" points="1303,1026 1303,86 1422,86 1422,1026"></polygon><polygon fill="rgb(200, 40, 40)" style="opacity:0.1" points="544,1026 544,349 946,86 1303,86 1303,1026"></polygon><polygon fill="rgb(240, 50, 50)" style="opacity:0.06" points="0,1026 0,706 544,349 544,1026"></polygon><line class="idvcroofline_total_line" x1="118" y1="1026" x2="118" y2="0"></line><line class="idvcroofline_grid_line" x1="1421" y1="1026" x2="1421" y2="0"></line><line class="idvcroofline_grid_line" x1="1088" y1="1026" x2="1088" y2="0"></line><line class="idvcroofline_grid_line" x1="754" y1="1026" x2="754" y2="0"></line><line class="idvcroofline_grid_line" x1="420" y1="1026" x2="420" y2="0"></line><line class="idvcroofline_grid_line" x1="87" y1="1026" x2="87" y2="0"></line><line class="idvcroofline_total_line" x1="0" y1="916" x2="1422" y2="916"></line><line class="idvcroofline_grid_line" x1="0" y1="897" x2="1422" y2="897"></line><line class="idvcroofline_grid_line" x1="0" y1="678" x2="1422" y2="678"></line><line class="idvcroofline_grid_line" x1="0" y1="459" x2="1422" y2="459"></line><line class="idvcroofline_grid_line" x1="0" y1="240" x2="1422" y2="240"></line><line class="idvcroofline_grid_line" x1="0" y1="21" x2="1422" y2="21"></line><line class="idvcroofline_line_hotarea idvc_active" x1="0" y1="706" x2="946" y2="86"></line><line class="idvcroofline_line_hotarea idvc_active" x1="0" y1="813" x2="1109" y2="86"></line><line class="idvcroofline_line_hotarea idvc_active" x1="0" y1="868" x2="1192" y2="86"></line><line class="idvcroofline_line_hotarea idvc_active" x1="0" y1="941" x2="1303" y2="86"></line><line class="idvcroofline_line_hotarea idvc_active" x1="946" y1="86" x2="1422" y2="86"></line><line class="idvcroofline_line_hotarea idvc_active" x1="845" y1="151" x2="1422" y2="151"></line><line class="idvcroofline_line_hotarea idvc_active" x1="845" y1="152" x2="1422" y2="152"></line><line class="idvcroofline_line_hotarea idvc_active" x1="745" y1="217" x2="1422" y2="217"></line><line class="idvcroofline_line_hotarea idvc_active" x1="544" y1="349" x2="1422" y2="349"></line><text style="text-anchor: middle;opacity:0.6" fill="rgb(160, 0, 0)" x="276" y="992"></text><text style="text-anchor: middle;opacity:0.6" fill="rgb(160, 0, 0)" x="276" y="1010">Memory bound</text><text style="text-anchor: middle;opacity:0.6" fill="rgb(160, 0, 0)" x="927.5" y="992">Bound by compute</text><text style="text-anchor: middle;opacity:0.6" fill="rgb(160, 0, 0)" x="927.5" y="1010">and memory roofs</text><text style="text-anchor: middle;opacity:0.6" fill="rgb(160, 0, 0)" x="1366.5" y="992"></text><text style="text-anchor: middle;opacity:0.6" fill="rgb(160, 0, 0)" x="1366.5" y="1010">Compute bound</text></g><g id="SVG_0_LoopsLayer"><circle class="roofline_loop idvc_active idvcroofline_point_current idvcroofline_point_selected" cx="416" cy="728" r="6" style="fill:yellow !important" ></circle></g><g id="SVG_0_RoofsLayer"><line class="idvcroofline_line L1Bandwidth(single-threaded)" x1="0" y1="706" x2="946" y2="86" style=""></line><line class="idvcroofline_line selected" x1="0" y1="706" x2="544" y2="349" style=""></line><line class="idvcroofline_line L2Bandwidth(single-threaded)" x1="0" y1="813" x2="1109" y2="86" style=""></line><line class="idvcroofline_line DRAMBandwidth(single-threaded)" x1="0" y1="941" x2="1303" y2="86" style=""></line><line class="idvcroofline_line SPVectorFMAPeak(single-threaded)" x1="946" y1="86" x2="1422" y2="86"></line><line class="idvcroofline_line SPVectorAddPeak(single-threaded)" x1="845" y1="151" x2="1422" y2="151"></line><line class="idvcroofline_line DPVectorFMAPeak(single-threaded)" x1="845" y1="152" x2="1422" y2="152"></line><line class="idvcroofline_line DPVectorAddPeak(single-threaded)" x1="745" y1="217" x2="1422" y2="217"></line><line class="idvcroofline_line ScalarAddPeak(single-threaded) selected" x1="544" y1="349" x2="1422" y2="349"></line><rect x="541" y="346" width="6" height="6" class="roofline_roofs_cross idvc_active"></rect><line x1="544" y1="352" x2="544" y2="1026" class="roofline_coord_line"></line><rect x="705" y="346" width="6" height="6" class="roofline_roofs_cross idvc_active"></rect><line x1="708" y1="352" x2="708" y2="1026" class="roofline_coord_line"></line><rect x="787" y="346" width="6" height="6" class="roofline_roofs_cross idvc_active"></rect><line x1="790" y1="352" x2="790" y2="1026" class="roofline_coord_line"></line><rect x="898" y="346" width="6" height="6" class="roofline_roofs_cross idvc_active"></rect><line x1="901" y1="352" x2="901" y2="1026" class="roofline_coord_line"></line><rect x="742" y="214" width="6" height="6" class="roofline_roofs_cross idvc_active"></rect><line x1="745" y1="220" x2="745" y2="1026" class="roofline_coord_line"></line><rect x="906" y="214" width="6" height="6" class="roofline_roofs_cross idvc_active"></rect><line x1="909" y1="220" x2="909" y2="1026" class="roofline_coord_line"></line><rect x="988" y="214" width="6" height="6" class="roofline_roofs_cross idvc_active"></rect><line x1="991" y1="220" x2="991" y2="1026" class="roofline_coord_line"></line><rect x="1099" y="214" width="6" height="6" class="roofline_roofs_cross idvc_active"></rect><line x1="1102" y1="220" x2="1102" y2="1026" class="roofline_coord_line"></line><rect x="842" y="149" width="6" height="6" class="roofline_roofs_cross idvc_active"></rect><line x1="845" y1="155" x2="845" y2="1026" class="roofline_coord_line"></line><rect x="1006" y="149" width="6" height="6" class="roofline_roofs_cross idvc_active"></rect><line x1="1009" y1="155" x2="1009" y2="1026" class="roofline_coord_line"></line><rect x="1088" y="149" width="6" height="6" class="roofline_roofs_cross idvc_active"></rect><line x1="1091" y1="155" x2="1091" y2="1026" class="roofline_coord_line"></line><rect x="1199" y="149" width="6" height="6" class="roofline_roofs_cross idvc_active"></rect><line x1="1202" y1="155" x2="1202" y2="1026" class="roofline_coord_line"></line><rect x="842" y="148" width="6" height="6" class="roofline_roofs_cross idvc_active"></rect><line x1="845" y1="154" x2="845" y2="1026" class="roofline_coord_line"></line><rect x="1006" y="148" width="6" height="6" class="roofline_roofs_cross idvc_active"></rect><line x1="1009" y1="154" x2="1009" y2="1026" class="roofline_coord_line"></line><rect x="1089" y="148" width="6" height="6" class="roofline_roofs_cross idvc_active"></rect><line x1="1092" y1="154" x2="1092" y2="1026" class="roofline_coord_line"></line><rect x="1200" y="148" width="6" height="6" class="roofline_roofs_cross idvc_active"></rect><line x1="1203" y1="154" x2="1203" y2="1026" class="roofline_coord_line"></line><rect x="943" y="83" width="6" height="6" class="roofline_roofs_cross idvc_active"></rect><line x1="946" y1="89" x2="946" y2="1026" class="roofline_coord_line"></line><rect x="1106" y="83" width="6" height="6" class="roofline_roofs_cross idvc_active"></rect><line x1="1109" y1="89" x2="1109" y2="1026" class="roofline_coord_line"></line><rect x="1189" y="83" width="6" height="6" class="roofline_roofs_cross idvc_active"></rect><line x1="1192" y1="89" x2="1192" y2="1026" class="roofline_coord_line"></line><rect x="1300" y="83" width="6" height="6" class="roofline_roofs_cross idvc_active"></rect><line x1="1303" y1="89" x2="1303" y2="1026" class="roofline_coord_line"></line><line class="idvcroofline_line L3Bandwidth(single-threaded)" x1="0" y1="868" x2="1192" y2="86" style=""></line></g><g id="SVG_0_RoofsTextLayer"><text class="idvcchart_roofline_text selected" x="0" y="0" style="dominant-baseline:text-after-edge;" transform="matrix(0.836377 -0.548154 0.548154 0.836377 9.37868 698.658)">L1 Bandwidth: 135.73 GB/sec</text><text class="idvcchart_roofline_text" x="0" y="0" style="dominant-baseline:text-after-edge;" transform="matrix(0.836318 -0.548245 0.548245 0.836318 9.39465 805.646)">L2 Bandwidth: 43.82 GB/sec</text><text class="idvcchart_roofline_text" x="0" y="0" style="dominant-baseline:text-after-edge;" transform="matrix(0.836075 -0.548614 0.548614 0.836075 9.35566 933.665)">DRAM Bandwidth: 11.51 GB/sec</text><text class="idvcchart_roofline_text" x="0" y="0" style="text-anchor: end; dominant-baseline:text-after-edge;" transform="matrix(1 0 0 1 1418 85)">SP Vector FMA Peak: 50.96 GFLOPS</text><text class="idvcchart_roofline_text" x="0" y="0" style="text-anchor: end; dominant-baseline:text-after-edge;" transform="matrix(1 0 0 1 1418 150)">SP Vector Add Peak: 25.5 GFLOPS</text><text class="idvcchart_roofline_text" x="0" y="0" style="text-anchor: end; dominant-baseline:text-before-edge;" transform="matrix(1 0 0 1 1418 153)">DP Vector FMA Peak: 25.43 GFLOPS</text><text class="idvcchart_roofline_text" x="0" y="0" style="text-anchor: end; dominant-baseline:text-after-edge;" transform="matrix(1 0 0 1 1418 216)">DP Vector Add Peak: 12.74 GFLOPS</text><text class="idvcchart_roofline_text selected" x="0" y="0" style="text-anchor: end; dominant-baseline:text-after-edge;" transform="matrix(1 0 0 1 1418 348)">Scalar Add Peak: 3.19 GFLOPS</text><text class="idvcchart_roofline_text" x="0" y="0" style="dominant-baseline:text-after-edge;" transform="matrix(0.836128 -0.548534 0.548534 0.836128 9.37399 860.654)">L3 Bandwidth: 24.79 GB/sec</text></g><g id="SVG_0_ForegroundLayer"><line x1="98" y1="916" x2="138" y2="916" class="idvcchart_roofline_center_marker"></line><line x1="118" y1="896" x2="118" y2="936" class="idvcchart_roofline_center_marker"></line><use xlink:href="#SVG_0_expanderTemplate" class="roofline_expander idvc_active" x="-118.25" y="-105.5"></use></g><rect x="0" y="0" width="0" height="0" class="idvcchart_selection"></rect><defs><filter id="SVG_0_TextBackground" x="0" y="0" width="1" height="1"><feFlood flood-color="white"></feFlood><feComposite in="SourceGraphic"></feComposite></filter></defs><defs id="SVG_0_line_arrows"><marker id="SVG_0_loops_matching_arrow" markerWidth="9" markerHeight="9" refX="9" refY="5" orient="auto"><path d="M 1 1 L 1 8 L 8 5 L 1 1" class="idvcroofline_loops_matching_arrow"></path></marker><marker id="SVG_0_ChildArrow" markerWidth="9" markerHeight="9" refX="9" refY="5" orient="auto"><path d="M 1 1 L 1 8 L 8 5 L 1 1" class="roofline_child_arrow"></path></marker><marker id="SVG_0_ParentArrow" markerWidth="9" markerHeight="9" refX="0" refY="5" orient="auto"><path d="M 1 1 L 1 8 L 8 5 L 1 1" class="roofline_parent_arrow"></path></marker></defs><defs id="SVG_0_fill_patterns"><pattern id="SVG_0_loopFill-8-6-cl" patternContentUnits="objectBoundingBox" width="100%" height="100%"><circle cx=".5" cy=".5" r=".5" fill="white"></circle><circle cx=".5" cy=".5" r="0.375" fill="yellow" stroke="black" stroke-width="0.05"></circle></pattern></defs><defs><g id="SVG_0_expanderTemplate"><rect x="0" y="0" width="11" height="11" class=""></rect><line x1="2" y1="5.5" x2="9" y2="5.5" class=""></line><line x1="5.5" y1="2" x2="5.5" y2="9" class=""></line></g></defs><text x="2" y="2" style="font-size: 90%; writing-mode: tb; dominant-baseline: text-after-edge">GFLOPS</text><text x="1418" y="1024" style="font-size: 90%; text-anchor: end; dominant-baseline: text-after-edge"><tspan>FLOP/Byte</tspan><tspan style="font-size: 90%;"> (Arithmetic Intensity)</tspan></text>    </svg>  </g>  </svg>