<svg xmlns="http://www.w3.org/2000/svg" xmlns:xlink="http://www.w3.org/1999/xlink" viewBox="0 0 1482 1050">  <style>    svg { font : caption; }      .idvcchart_axis { fill: none; stroke: gray; stroke-width: 1; vector-effect: non-scaling-stroke; shape-rendering: crispEdges; }      .idvcchart_axis_text { fill: #333; font-size: 95%; stroke: none; stroke-width: 1; vector-effect: non-scaling-stroke; }      .idvcchart_roofline_text { fill: gray; font-size: 90%; }      .idvcchart_roofline_text.selected { fill: #000; }      .idvcchart_roofline_text.hidden { fill: none; }      .idvcchart_roofline_explanation { fill: none; }      .idvcchart_roofline_center_marker { stroke: #000; stroke-width: 1 }      .roofline_child_line { stroke: none; fill: none; }      .roofline_parent_line { stroke: none; fill: none; }      .roofline_child_arrow { stroke: none; fill: none; }      .roofline_parent_arrow { stroke: none; fill: none; }      .roofline_loop { stroke: #000; stroke-width: 1; vector-effect: non-scaling-stroke; shape-rendering: geometricPrecision; fill: lightgray; }      .roofline_loop.no_loop_position { stroke: darkgray; fill: #eee; }      .roofline_loop.loop_inactive_result { opacity: 0.4; }      .idvcroofline_line { stroke: #999; stroke-dasharray: 4,4; fill: none; stroke-width: 1; vector-effect: non-scaling-stroke; shape-rendering: crispEdges; }      .idvcroofline_grid_line { stroke: #ddd; fill: none; stroke-width: 1; vector-effect: non-scaling-stroke; shape-rendering: crispEdges; }      .idvcroofline_line.selected { stroke: #000; shape-rendering: auto; stroke-dasharray: none; }      .idvcroofline_line_hotarea { stroke: none; fill: none; }      .roofline_roofs_cross { stroke: none; fill: none; }      .roofline_coord_line { stroke: none; fill: none; stroke-width: 1; vector-effect: non-scaling-stroke; shape-rendering: crispEdges; }      .roofline_coord_line.selected { stroke: gray; stroke-dasharray: none !important; }      .roofline_expander { stroke: none; fill: none; }      .roofline_expander_vert_line { stroke: none; fill: none; }      .roofline_expander_horz_line { stroke: none; fill: none; }      .idvcroofline_roof_crossing { stroke: none; fill: none; }      .idvcroofline_roof_crossing_line { stroke: none; fill: none; }      .idvcroofline_roof_crossing_label { stroke: none; fill: none; }      .idvcroofline_loops_matching_line { stroke: black; stroke-dasharray: 4,4; fill: none; vector-effect: non-scaling-stroke; shape-rendering: crispEdges; }      .idvcroofline_loops_matching_arrow { stroke: #000; fill: black; vector-effect: non-scaling-stroke; shape-rendering: geometricPrecision; }      .idvcroofline_loops_matching_label { font-size: 100%; }      .idvcroofline_total_value_tick_active { stroke: none; fill: none; }      .idvcroofline_total_value_tick { stroke: none; fill: none; }      .stairs_delta_line {stroke-width: 2;vector-effect: non-scaling-stroke;shape-rendering: geometricPrecision;}      .stairs_connection_line {stroke: black;stroke-width: 1;stroke-dasharray: 2,2;vector-effect: non-scaling-stroke;shape-rendering: geometricPrecision;}      .stairs_delta_ends {stroke-width: 3;vector-effect: non-scaling-stroke;shape-rendering: geometricPrecision;}      .dumbbell_line {stroke: #2D3741;stroke-width: 1.5;fill: none;vector-effect: non-scaling-stroke;shape-rendering: geometricPrecision;}      .idvc_hidden { stroke: none !important; fill: none !important; }  </style>  <g>    <svg id="vert_axis" viewBox="0 0 60 1026" width="60" height="1026">      <line x1="59.5625" y1="0" x2="59.5625" y2="1026" class="idvcchart_axis"></line><line x1="54.0625" y1="975" x2="60.0625" y2="975" class="idvcchart_axis"></line><line x1="54.0625" y1="975" x2="60.0625" y2="975" class="idvcchart_axis_hot"></line><text x="50.0625" y="975" class="idvcchart_axis_text" style="text-anchor: end;dominant-baseline: middle">0.7</text><line x1="54.0625" y1="887" x2="60.0625" y2="887" class="idvcchart_axis"></line><line x1="54.0625" y1="887" x2="60.0625" y2="887" class="idvcchart_axis_hot"></line><text x="50.0625" y="887" class="idvcchart_axis_text" style="text-anchor: end;dominant-baseline: middle">1</text><line x1="54.0625" y1="544" x2="60.0625" y2="544" class="idvcchart_axis"></line><line x1="54.0625" y1="544" x2="60.0625" y2="544" class="idvcchart_axis_hot"></line><text x="50.0625" y="544" class="idvcchart_axis_text" style="text-anchor: end;dominant-baseline: middle">4</text><line x1="54.0625" y1="405" x2="60.0625" y2="405" class="idvcchart_axis"></line><line x1="54.0625" y1="405" x2="60.0625" y2="405" class="idvcchart_axis_hot"></line><text x="50.0625" y="405" class="idvcchart_axis_text" style="text-anchor: end;dominant-baseline: middle">7</text><line x1="54.0625" y1="317" x2="60.0625" y2="317" class="idvcchart_axis"></line><line x1="54.0625" y1="317" x2="60.0625" y2="317" class="idvcchart_axis_hot"></line><text x="50.0625" y="317" class="idvcchart_axis_text" style="text-anchor: end;dominant-baseline: middle">10</text><defs><marker id="SVG_1_TotalValue" markerWidth="6" markerHeight="10" refX="1" refY="5" orient="auto" markerUnits="userSpaceOnUse"><path d="M 0 0 L 0 10 L 6 5 L 0 0" class="idvcroofline_total_value_tick"></path></marker><marker id="SVG_1_TotalValueActive" markerWidth="6" markerHeight="10" refX="1" refY="5" orient="auto" markerUnits="userSpaceOnUse"><path d="M 0 0 L 0 10 L 6 5 L 0 0" class="idvcroofline_total_value_tick_active"></path></marker></defs><line x1="54.0625" y1="761" x2="60.0625" y2="761" class="idvcchart_axis idvc_active" style="stroke: transparent; stroke-width:10; marker-start:url(#SVG_1_TotalValue)" ></line><line x1="54.0625" y1="761" x2="60.0625" y2="761" class="idvcchart_axis_hot"></line><text x="50.0625" y="761" class="" style="text-anchor: end;dominant-baseline: middle" fill="none">1.67</text>    </svg>  </g>  <g transform="translate(60, 1026)">    <svg id="horz_axis" viewBox="0 0 1422 24" width="1422" height="24">      <line x1="0" y1="0.5" x2="1421.53125" y2="0.5" class="idvcchart_axis"></line><line x1="8" y1="6" x2="8" y2="0" class="idvcchart_axis"></line><line x1="8" y1="6" x2="8" y2="0" class="idvcchart_axis_hot"></line><text x="11.09375" y="10" class="idvcchart_axis_text" style="text-anchor: middle; dominant-baseline:text-before-edge;"> 0.07 </text><line x1="143" y1="6" x2="143" y2="0" class="idvcchart_axis"></line><line x1="143" y1="6" x2="143" y2="0" class="idvcchart_axis_hot"></line><text x="143" y="10" class="idvcchart_axis_text" style="text-anchor: middle; dominant-baseline:text-before-edge;"> 0.1 </text><line x1="666" y1="6" x2="666" y2="0" class="idvcchart_axis"></line><line x1="666" y1="6" x2="666" y2="0" class="idvcchart_axis_hot"></line><text x="666" y="10" class="idvcchart_axis_text" style="text-anchor: middle; dominant-baseline:text-before-edge;"> 0.4 </text><line x1="877" y1="6" x2="877" y2="0" class="idvcchart_axis"></line><line x1="877" y1="6" x2="877" y2="0" class="idvcchart_axis_hot"></line><text x="877" y="10" class="idvcchart_axis_text" style="text-anchor: middle; dominant-baseline:text-before-edge;"> 0.7 </text><line x1="1011" y1="6" x2="1011" y2="0" class="idvcchart_axis"></line><line x1="1011" y1="6" x2="1011" y2="0" class="idvcchart_axis_hot"></line><text x="1011" y="10" class="idvcchart_axis_text" style="text-anchor: middle; dominant-baseline:text-before-edge;"> 1 </text><defs><marker id="SVG_2_TotalValue" markerWidth="6" markerHeight="10" refX="1" refY="5" orient="auto" markerUnits="userSpaceOnUse"><path d="M 0 0 L 0 10 L 6 5 L 0 0" class="idvcroofline_total_value_tick"></path></marker><marker id="SVG_2_TotalValueActive" markerWidth="6" markerHeight="10" refX="1" refY="5" orient="auto" markerUnits="userSpaceOnUse"><path d="M 0 0 L 0 10 L 6 5 L 0 0" class="idvcroofline_total_value_tick_active"></path></marker></defs><line x1="125" y1="6" x2="125" y2="0" class="idvcchart_axis idvc_active" style="stroke: transparent; stroke-width:10; marker-start:url(#SVG_2_TotalValue)" ></line><line x1="125" y1="6" x2="125" y2="0" class="idvcchart_axis_hot"></line><text x="125" y="10" class="" style="text-anchor: middle; dominant-baseline:text-before-edge;" fill="none"> 0.095 </text>    </svg>  </g>  <g transform="translate(60, 0)">    <svg id="roofline_content" viewBox="0 0 1422 1026" width="1422" height="1026">      <g id="SVG_0_BackgroundLayer"><polygon fill="rgb(160, 30, 30)" style="opacity:0.14" points="1303,1026 1303,86 1422,86 1422,1026"></polygon><polygon fill="rgb(200, 40, 40)" style="opacity:0.1" points="118,1026 118,257 380,86 1303,86 1303,1026"></polygon><polygon fill="rgb(240, 50, 50)" style="opacity:0.06" points="0,1026 0,335 118,257 118,1026"></polygon><line class="idvcroofline_total_line" x1="125" y1="1026" x2="125" y2="0"></line><line class="idvcroofline_grid_line" x1="1011" y1="1026" x2="1011" y2="0"></line><line class="idvcroofline_grid_line" x1="877" y1="1026" x2="877" y2="0"></line><line class="idvcroofline_grid_line" x1="666" y1="1026" x2="666" y2="0"></line><line class="idvcroofline_grid_line" x1="143" y1="1026" x2="143" y2="0"></line><line class="idvcroofline_grid_line" x1="8" y1="1026" x2="8" y2="0"></line><line class="idvcroofline_total_line" x1="0" y1="761" x2="1422" y2="761"></line><line class="idvcroofline_grid_line" x1="0" y1="975" x2="1422" y2="975"></line><line class="idvcroofline_grid_line" x1="0" y1="887" x2="1422" y2="887"></line><line class="idvcroofline_grid_line" x1="0" y1="544" x2="1422" y2="544"></line><line class="idvcroofline_grid_line" x1="0" y1="405" x2="1422" y2="405"></line><line class="idvcroofline_grid_line" x1="0" y1="317" x2="1422" y2="317"></line><line class="idvcroofline_line_hotarea idvc_active" x1="0" y1="335" x2="380" y2="86"></line><line class="idvcroofline_line_hotarea idvc_active" x1="0" y1="613" x2="804" y2="86"></line><line class="idvcroofline_line_hotarea idvc_active" x1="0" y1="761" x2="1029" y2="86"></line><line class="idvcroofline_line_hotarea idvc_active" x1="0" y1="941" x2="1303" y2="86"></line><line class="idvcroofline_line_hotarea idvc_active" x1="380" y1="86" x2="1422" y2="86"></line><line class="idvcroofline_line_hotarea idvc_active" x1="118" y1="257" x2="1422" y2="257"></line><text style="text-anchor: middle;opacity:0.6" fill="rgb(160, 0, 0)" x="63" y="992"></text><text style="text-anchor: middle;opacity:0.6" fill="rgb(160, 0, 0)" x="63" y="1010">Memory bound</text><text style="text-anchor: middle;opacity:0.6" fill="rgb(160, 0, 0)" x="714.5" y="992">Bound by compute</text><text style="text-anchor: middle;opacity:0.6" fill="rgb(160, 0, 0)" x="714.5" y="1010">and memory roofs</text><text style="text-anchor: middle;opacity:0.6" fill="rgb(160, 0, 0)" x="1366.5" y="992"></text><text style="text-anchor: middle;opacity:0.6" fill="rgb(160, 0, 0)" x="1366.5" y="1010">Compute bound</text></g><g id="SVG_0_LoopsLayer"><circle class="roofline_loop idvc_active idvcroofline_point_current idvcroofline_point_selected" cx="182" cy="298" r="8" style="fill:red !important" ></circle></g><g id="SVG_0_RoofsLayer"><rect x="115" y="254" width="6" height="6" class="roofline_roofs_cross idvc_active"></rect><line x1="118" y1="260" x2="118" y2="1026" class="roofline_coord_line"></line><rect x="540" y="254" width="6" height="6" class="roofline_roofs_cross idvc_active"></rect><line x1="543" y1="260" x2="543" y2="1026" class="roofline_coord_line"></line><rect x="765" y="254" width="6" height="6" class="roofline_roofs_cross idvc_active"></rect><line x1="768" y1="260" x2="768" y2="1026" class="roofline_coord_line"></line><rect x="1039" y="254" width="6" height="6" class="roofline_roofs_cross idvc_active"></rect><line x1="1042" y1="260" x2="1042" y2="1026" class="roofline_coord_line"></line><rect x="377" y="83" width="6" height="6" class="roofline_roofs_cross idvc_active"></rect><line x1="380" y1="89" x2="380" y2="1026" class="roofline_coord_line"></line><rect x="801" y="83" width="6" height="6" class="roofline_roofs_cross idvc_active"></rect><line x1="804" y1="89" x2="804" y2="1026" class="roofline_coord_line"></line><rect x="1026" y="83" width="6" height="6" class="roofline_roofs_cross idvc_active"></rect><line x1="1029" y1="89" x2="1029" y2="1026" class="roofline_coord_line"></line><rect x="1300" y="83" width="6" height="6" class="roofline_roofs_cross idvc_active"></rect><line x1="1303" y1="89" x2="1303" y2="1026" class="roofline_coord_line"></line><line class="idvcroofline_line DPVectorFMAPeak(single-threaded) selected" x1="380" y1="86" x2="1422" y2="86"></line><line class="idvcroofline_line DRAMBandwidth(single-threaded)" x1="0" y1="941" x2="1303" y2="86" style=""></line><line class="idvcroofline_line L3Bandwidth(single-threaded)" x1="0" y1="761" x2="1029" y2="86" style=""></line><line class="idvcroofline_line L2Bandwidth(single-threaded)" x1="0" y1="613" x2="804" y2="86" style=""></line><line class="idvcroofline_line DPVectorAddPeak(single-threaded)" x1="118" y1="257" x2="1422" y2="257"></line><line class="idvcroofline_line L1Bandwidth(single-threaded)" x1="0" y1="335" x2="380" y2="86" style=""></line><line class="idvcroofline_line selected" x1="0" y1="335" x2="380" y2="86" style=""></line></g><g id="SVG_0_RoofsTextLayer"><text class="idvcchart_roofline_text selected" x="0" y="0" style="text-anchor: end; dominant-baseline:text-after-edge;" transform="matrix(1 0 0 1 1418 85)">DP Vector FMA Peak: 25.49 GFLOPS</text><text class="idvcchart_roofline_text" x="0" y="0" style="dominant-baseline:text-after-edge;" transform="matrix(0.836075 -0.548614 0.548614 0.836075 9.35566 933.665)">DRAM Bandwidth: 11.76 GB/sec</text><text class="idvcchart_roofline_text" x="0" y="0" style="dominant-baseline:text-after-edge;" transform="matrix(0.836153 -0.548497 0.548497 0.836153 9.37771 753.652)">L3 Bandwidth: 24.29 GB/sec</text><text class="idvcchart_roofline_text" x="0" y="0" style="dominant-baseline:text-after-edge;" transform="matrix(0.836346 -0.548202 0.548202 0.836346 9.3869 605.651)">L2 Bandwidth: 44.11 GB/sec</text><text class="idvcchart_roofline_text" x="0" y="0" style="text-anchor: end; dominant-baseline:text-after-edge;" transform="matrix(1 0 0 1 1418 256)">DP Vector Add Peak: 12.74 GFLOPS</text><text class="idvcchart_roofline_text selected" x="0" y="0" style="dominant-baseline:text-after-edge;" transform="matrix(0.836426 -0.548079 0.548079 0.836426 9.38419 327.655)">L1 Bandwidth: 135.92 GB/sec</text></g><g id="SVG_0_ForegroundLayer"><line x1="105" y1="761" x2="145" y2="761" class="idvcchart_roofline_center_marker"></line><line x1="125" y1="741" x2="125" y2="781" class="idvcchart_roofline_center_marker"></line><use xlink:href="#SVG_0_expanderTemplate" class="roofline_expander idvc_active" x="-118.25" y="-105.5"></use><text class="idvcroofline_roof_crossing_label" x="-100" y="-100" filter="url(#SVG_0_TextBackground)" style="text-anchor:end; dominant-baseline: middle;"><tspan class="idvcroofline_roof_crossing_label_value">15.07</tspan><tspan class="idvcroofline_roof_crossing_label_measure"> GFLOPS </tspan><tspan class="idvcroofline_roof_crossing_label_gain_x">(</tspan><tspan class="idvcroofline_roof_crossing_label_gain">1.4</tspan><tspan class="idvcroofline_roof_crossing_label_gain_x">x)</tspan></text><text class="idvcroofline_roof_crossing_label" x="-100" y="-100" filter="url(#SVG_0_TextBackground)" style="text-anchor:end; dominant-baseline: middle;"><tspan class="idvcroofline_roof_crossing_label_value">12.74</tspan><tspan class="idvcroofline_roof_crossing_label_measure"> GFLOPS </tspan><tspan class="idvcroofline_roof_crossing_label_gain_x">(</tspan><tspan class="idvcroofline_roof_crossing_label_gain">1.2</tspan><tspan class="idvcroofline_roof_crossing_label_gain_x">x)</tspan></text><use xlink:href="#SVG_0_crossingTemplate" class="idvcroofline_roof_crossing" x="-100" y="-100"></use><use xlink:href="#SVG_0_crossingTemplate" class="idvcroofline_roof_crossing" x="-100" y="-100"></use><line x1="-100" y1="0" x2="-100" y2="0" class="idvcroofline_roof_crossing_line"></line></g><rect x="0" y="0" width="0" height="0" class="idvcchart_selection"></rect><defs><filter id="SVG_0_TextBackground" x="0" y="0" width="1" height="1"><feFlood flood-color="white"></feFlood><feComposite in="SourceGraphic"></feComposite></filter></defs><defs id="SVG_0_line_arrows"><marker id="SVG_0_loops_matching_arrow" markerWidth="9" markerHeight="9" refX="9" refY="5" orient="auto"><path d="M 1 1 L 1 8 L 8 5 L 1 1" class="idvcroofline_loops_matching_arrow"></path></marker><marker id="SVG_0_ChildArrow" markerWidth="9" markerHeight="9" refX="9" refY="5" orient="auto"><path d="M 1 1 L 1 8 L 8 5 L 1 1" class="roofline_child_arrow"></path></marker><marker id="SVG_0_ParentArrow" markerWidth="9" markerHeight="9" refX="0" refY="5" orient="auto"><path d="M 1 1 L 1 8 L 8 5 L 1 1" class="roofline_parent_arrow"></path></marker></defs><defs id="SVG_0_fill_patterns"><pattern id="SVG_0_loopFill-6-4-cl" patternContentUnits="objectBoundingBox" width="100%" height="100%"><circle cx=".5" cy=".5" r=".5" fill="white"></circle><circle cx=".5" cy=".5" r="0.3333333333333333" fill="green" stroke="black" stroke-width="0.05"></circle></pattern><pattern id="SVG_0_loopFill-8-4-cl" patternContentUnits="objectBoundingBox" width="100%" height="100%"><circle cx=".5" cy=".5" r=".5" fill="white"></circle><circle cx=".5" cy=".5" r="0.25" fill="green" stroke="black" stroke-width="0.05"></circle></pattern><pattern id="SVG_0_loopFill-8-6-cl" patternContentUnits="objectBoundingBox" width="100%" height="100%"><circle cx=".5" cy=".5" r=".5" fill="white"></circle><circle cx=".5" cy=".5" r="0.375" fill="yellow" stroke="black" stroke-width="0.05"></circle></pattern></defs><defs><g id="SVG_0_expanderTemplate"><rect x="0" y="0" width="11" height="11" class=""></rect><line x1="2" y1="5.5" x2="9" y2="5.5" class=""></line><line x1="5.5" y1="2" x2="5.5" y2="9" class=""></line></g></defs><defs><line id="SVG_0_crossingTemplate" x1="-4" y1="-4" x2="4" y2="4"></line></defs><text x="2" y="2" style="font-size: 90%; writing-mode: tb; dominant-baseline: text-after-edge">GFLOPS</text><text x="1418" y="1024" style="font-size: 90%; text-anchor: end; dominant-baseline: text-after-edge"><tspan>FLOP/Byte</tspan><tspan style="font-size: 90%;"> (Arithmetic Intensity)</tspan></text>    </svg>  </g>  </svg>