<svg xmlns="http://www.w3.org/2000/svg" xmlns:xlink="http://www.w3.org/1999/xlink" viewBox="0 0 1482 1050">  <style>    svg { font : caption; }      .idvcchart_axis { fill: none; stroke: gray; stroke-width: 1; vector-effect: non-scaling-stroke; shape-rendering: crispEdges; }      .idvcchart_axis_text { fill: #333; font-size: 95%; stroke: none; stroke-width: 1; vector-effect: non-scaling-stroke; }      .idvcchart_roofline_text { fill: gray; font-size: 90%; }      .idvcchart_roofline_text.selected { fill: #000; }      .idvcchart_roofline_text.hidden { fill: none; }      .idvcchart_roofline_explanation { fill: none; }      .idvcchart_roofline_center_marker { stroke: #000; stroke-width: 1 }      .roofline_child_line { stroke: none; fill: none; }      .roofline_parent_line { stroke: none; fill: none; }      .roofline_child_arrow { stroke: none; fill: none; }      .roofline_parent_arrow { stroke: none; fill: none; }      .roofline_loop { stroke: #000; stroke-width: 1; vector-effect: non-scaling-stroke; shape-rendering: geometricPrecision; fill: lightgray; }      .roofline_loop.no_loop_position { stroke: darkgray; fill: #eee; }      .roofline_loop.loop_inactive_result { opacity: 0.4; }      .idvcroofline_line { stroke: #999; stroke-dasharray: 4,4; fill: none; stroke-width: 1; vector-effect: non-scaling-stroke; shape-rendering: crispEdges; }      .idvcroofline_grid_line { stroke: #ddd; fill: none; stroke-width: 1; vector-effect: non-scaling-stroke; shape-rendering: crispEdges; }      .idvcroofline_line.selected { stroke: #000; shape-rendering: auto; stroke-dasharray: none; }      .idvcroofline_line_hotarea { stroke: none; fill: none; }      .roofline_roofs_cross { stroke: none; fill: none; }      .roofline_coord_line { stroke: none; fill: none; stroke-width: 1; vector-effect: non-scaling-stroke; shape-rendering: crispEdges; }      .roofline_coord_line.selected { stroke: gray; stroke-dasharray: none !important; }      .roofline_expander { stroke: none; fill: none; }      .roofline_expander_vert_line { stroke: none; fill: none; }      .roofline_expander_horz_line { stroke: none; fill: none; }      .idvcroofline_roof_crossing { stroke: none; fill: none; }      .idvcroofline_roof_crossing_line { stroke: none; fill: none; }      .idvcroofline_roof_crossing_label { stroke: none; fill: none; }      .idvcroofline_loops_matching_line { stroke: black; stroke-dasharray: 4,4; fill: none; vector-effect: non-scaling-stroke; shape-rendering: crispEdges; }      .idvcroofline_loops_matching_arrow { stroke: #000; fill: black; vector-effect: non-scaling-stroke; shape-rendering: geometricPrecision; }      .idvcroofline_loops_matching_label { font-size: 100%; }      .idvcroofline_total_value_tick_active { stroke: none; fill: none; }      .idvcroofline_total_value_tick { stroke: none; fill: none; }      .stairs_delta_line {stroke-width: 2;vector-effect: non-scaling-stroke;shape-rendering: geometricPrecision;}      .stairs_connection_line {stroke: black;stroke-width: 1;stroke-dasharray: 2,2;vector-effect: non-scaling-stroke;shape-rendering: geometricPrecision;}      .stairs_delta_ends {stroke-width: 3;vector-effect: non-scaling-stroke;shape-rendering: geometricPrecision;}      .dumbbell_line {stroke: #2D3741;stroke-width: 1.5;fill: none;vector-effect: non-scaling-stroke;shape-rendering: geometricPrecision;}      .idvc_hidden { stroke: none !important; fill: none !important; }  </style>  <g>    <svg id="vert_axis" viewBox="0 0 60 1026" width="60" height="1026">      <line x1="59.5625" y1="0" x2="59.5625" y2="1026" class="idvcchart_axis"></line><line x1="54.0625" y1="981" x2="60.0625" y2="981" class="idvcchart_axis"></line><line x1="54.0625" y1="981" x2="60.0625" y2="981" class="idvcchart_axis_hot"></line><text x="50.0625" y="981" class="idvcchart_axis_text" style="text-anchor: end;dominant-baseline: middle">0.4</text><line x1="54.0625" y1="887" x2="60.0625" y2="887" class="idvcchart_axis"></line><line x1="54.0625" y1="887" x2="60.0625" y2="887" class="idvcchart_axis_hot"></line><text x="50.0625" y="887" class="idvcchart_axis_text" style="text-anchor: end;dominant-baseline: middle">0.7</text><line x1="54.0625" y1="827" x2="60.0625" y2="827" class="idvcchart_axis"></line><line x1="54.0625" y1="827" x2="60.0625" y2="827" class="idvcchart_axis_hot"></line><text x="50.0625" y="827" class="idvcchart_axis_text" style="text-anchor: end;dominant-baseline: middle">1</text><line x1="54.0625" y1="594" x2="60.0625" y2="594" class="idvcchart_axis"></line><line x1="54.0625" y1="594" x2="60.0625" y2="594" class="idvcchart_axis_hot"></line><text x="50.0625" y="594" class="idvcchart_axis_text" style="text-anchor: end;dominant-baseline: middle">4</text><line x1="54.0625" y1="500" x2="60.0625" y2="500" class="idvcchart_axis"></line><line x1="54.0625" y1="500" x2="60.0625" y2="500" class="idvcchart_axis_hot"></line><text x="50.0625" y="500" class="idvcchart_axis_text" style="text-anchor: end;dominant-baseline: middle">7</text><line x1="54.0625" y1="440" x2="60.0625" y2="440" class="idvcchart_axis"></line><line x1="54.0625" y1="440" x2="60.0625" y2="440" class="idvcchart_axis_hot"></line><text x="50.0625" y="440" class="idvcchart_axis_text" style="text-anchor: end;dominant-baseline: middle">10</text><line x1="54.0625" y1="206" x2="60.0625" y2="206" class="idvcchart_axis"></line><line x1="54.0625" y1="206" x2="60.0625" y2="206" class="idvcchart_axis_hot"></line><text x="50.0625" y="206" class="idvcchart_axis_text" style="text-anchor: end;dominant-baseline: middle">40</text><line x1="54.0625" y1="112" x2="60.0625" y2="112" class="idvcchart_axis"></line><line x1="54.0625" y1="112" x2="60.0625" y2="112" class="idvcchart_axis_hot"></line><text x="50.0625" y="112" class="idvcchart_axis_text" style="text-anchor: end;dominant-baseline: middle">70</text><line x1="54.0625" y1="52" x2="60.0625" y2="52" class="idvcchart_axis"></line><line x1="54.0625" y1="52" x2="60.0625" y2="52" class="idvcchart_axis_hot"></line><text x="50.0625" y="52" class="idvcchart_axis_text" style="text-anchor: end;dominant-baseline: middle">100</text><defs id="SVG_1_TextBackgroundDefs"><filter id="SVG_1_TextBackground" x="0" y="0" width="1" height="1"><feFlood flood-color="white"></feFlood><feComposite in="SourceGraphic"></feComposite></filter></defs><defs><marker id="SVG_1_TotalValue" markerWidth="6" markerHeight="10" refX="1" refY="5" orient="auto" markerUnits="userSpaceOnUse"><path d="M 0 0 L 0 10 L 6 5 L 0 0" class="idvcroofline_total_value_tick"></path></marker><marker id="SVG_1_TotalValueActive" markerWidth="6" markerHeight="10" refX="1" refY="5" orient="auto" markerUnits="userSpaceOnUse"><path d="M 0 0 L 0 10 L 6 5 L 0 0" class="idvcroofline_total_value_tick_active"></path></marker></defs><line x1="54.0625" y1="741" x2="60.0625" y2="741" class="idvcchart_axis idvc_active" style="stroke: transparent; stroke-width:10; marker-start:url(#SVG_1_TotalValue)" ></line><line x1="54.0625" y1="741" x2="60.0625" y2="741" class="idvcchart_axis_hot"></line><text x="50.0625" y="741" class="" style="text-anchor: end;dominant-baseline: middle" fill="none">1.67</text>    </svg>  </g>  <g transform="translate(60, 1026)">    <svg id="horz_axis" viewBox="0 0 1422 24" width="1422" height="24">      <line x1="0" y1="0.5" x2="1421.53125" y2="0.5" class="idvcchart_axis"></line><line x1="43" y1="6" x2="43" y2="0" class="idvcchart_axis"></line><line x1="43" y1="6" x2="43" y2="0" class="idvcchart_axis_hot"></line><text x="43" y="10" class="idvcchart_axis_text" style="text-anchor: middle; dominant-baseline:text-before-edge;"> 0.07 </text><line x1="135" y1="6" x2="135" y2="0" class="idvcchart_axis"></line><line x1="135" y1="6" x2="135" y2="0" class="idvcchart_axis_hot"></line><text x="135" y="10" class="idvcchart_axis_text" style="text-anchor: middle; dominant-baseline:text-before-edge;"> 0.1 </text><line x1="490" y1="6" x2="490" y2="0" class="idvcchart_axis"></line><line x1="490" y1="6" x2="490" y2="0" class="idvcchart_axis_hot"></line><text x="490" y="10" class="idvcchart_axis_text" style="text-anchor: middle; dominant-baseline:text-before-edge;"> 0.4 </text><line x1="634" y1="6" x2="634" y2="0" class="idvcchart_axis"></line><line x1="634" y1="6" x2="634" y2="0" class="idvcchart_axis_hot"></line><text x="634" y="10" class="idvcchart_axis_text" style="text-anchor: middle; dominant-baseline:text-before-edge;"> 0.7 </text><line x1="725" y1="6" x2="725" y2="0" class="idvcchart_axis"></line><line x1="725" y1="6" x2="725" y2="0" class="idvcchart_axis_hot"></line><text x="725" y="10" class="idvcchart_axis_text" style="text-anchor: middle; dominant-baseline:text-before-edge;"> 1 </text><line x1="1081" y1="6" x2="1081" y2="0" class="idvcchart_axis"></line><line x1="1081" y1="6" x2="1081" y2="0" class="idvcchart_axis_hot"></line><text x="1081" y="10" class="idvcchart_axis_text" style="text-anchor: middle; dominant-baseline:text-before-edge;"> 4 </text><line x1="1224" y1="6" x2="1224" y2="0" class="idvcchart_axis"></line><line x1="1224" y1="6" x2="1224" y2="0" class="idvcchart_axis_hot"></line><text x="1224" y="10" class="idvcchart_axis_text" style="text-anchor: middle; dominant-baseline:text-before-edge;"> 7 </text><line x1="1316" y1="6" x2="1316" y2="0" class="idvcchart_axis"></line><line x1="1316" y1="6" x2="1316" y2="0" class="idvcchart_axis_hot"></line><text x="1316" y="10" class="idvcchart_axis_text" style="text-anchor: middle; dominant-baseline:text-before-edge;"> 10 </text><defs><marker id="SVG_2_TotalValue" markerWidth="6" markerHeight="10" refX="1" refY="5" orient="auto" markerUnits="userSpaceOnUse"><path d="M 0 0 L 0 10 L 6 5 L 0 0" class="idvcroofline_total_value_tick"></path></marker><marker id="SVG_2_TotalValueActive" markerWidth="6" markerHeight="10" refX="1" refY="5" orient="auto" markerUnits="userSpaceOnUse"><path d="M 0 0 L 0 10 L 6 5 L 0 0" class="idvcroofline_total_value_tick_active"></path></marker></defs><line x1="123" y1="6" x2="123" y2="0" class="idvcchart_axis idvc_active" style="stroke: transparent; stroke-width:10; marker-start:url(#SVG_2_TotalValue)" ></line><line x1="123" y1="6" x2="123" y2="0" class="idvcchart_axis_hot"></line><text x="123" y="10" class="" style="text-anchor: middle; dominant-baseline:text-before-edge;" fill="none"> 0.095 </text>    </svg>  </g>  <g transform="translate(60, 0)">    <svg id="roofline_content" viewBox="0 0 1422 1026" width="1422" height="1026">      <g id="SVG_0_BackgroundLayer"><polygon fill="rgb(160, 30, 30)" style="opacity:0.14" points="1303,1026 1303,85 1422,85 1422,1026"></polygon><polygon fill="rgb(200, 40, 40)" style="opacity:0.1" points="118,1026 118,166 240,85 1303,85 1303,1026"></polygon><polygon fill="rgb(240, 50, 50)" style="opacity:0.06" points="0,1026 0,243 118,166 118,1026"></polygon><line class="idvcroofline_total_line" x1="123" y1="1026" x2="123" y2="0"></line><line class="idvcroofline_grid_line" x1="1316" y1="1026" x2="1316" y2="0"></line><line class="idvcroofline_grid_line" x1="1224" y1="1026" x2="1224" y2="0"></line><line class="idvcroofline_grid_line" x1="1081" y1="1026" x2="1081" y2="0"></line><line class="idvcroofline_grid_line" x1="725" y1="1026" x2="725" y2="0"></line><line class="idvcroofline_grid_line" x1="634" y1="1026" x2="634" y2="0"></line><line class="idvcroofline_grid_line" x1="490" y1="1026" x2="490" y2="0"></line><line class="idvcroofline_grid_line" x1="135" y1="1026" x2="135" y2="0"></line><line class="idvcroofline_grid_line" x1="43" y1="1026" x2="43" y2="0"></line><line class="idvcroofline_total_line" x1="0" y1="741" x2="1422" y2="741"></line><line class="idvcroofline_grid_line" x1="0" y1="981" x2="1422" y2="981"></line><line class="idvcroofline_grid_line" x1="0" y1="887" x2="1422" y2="887"></line><line class="idvcroofline_grid_line" x1="0" y1="827" x2="1422" y2="827"></line><line class="idvcroofline_grid_line" x1="0" y1="594" x2="1422" y2="594"></line><line class="idvcroofline_grid_line" x1="0" y1="500" x2="1422" y2="500"></line><line class="idvcroofline_grid_line" x1="0" y1="440" x2="1422" y2="440"></line><line class="idvcroofline_grid_line" x1="0" y1="206" x2="1422" y2="206"></line><line class="idvcroofline_grid_line" x1="0" y1="112" x2="1422" y2="112"></line><line class="idvcroofline_grid_line" x1="0" y1="52" x2="1422" y2="52"></line><line class="idvcroofline_line_hotarea idvc_active" x1="0" y1="243" x2="240" y2="85"></line><line class="idvcroofline_line_hotarea idvc_active" x1="0" y1="433" x2="529" y2="85"></line><line class="idvcroofline_line_hotarea idvc_active" x1="0" y1="533" x2="682" y2="85"></line><line class="idvcroofline_line_hotarea idvc_active" x1="0" y1="941" x2="1303" y2="85"></line><line class="idvcroofline_line_hotarea idvc_active" x1="240" y1="85" x2="1422" y2="85"></line><line class="idvcroofline_line_hotarea idvc_active" x1="118" y1="166" x2="1422" y2="166"></line><text style="text-anchor: middle;opacity:0.6" fill="rgb(160, 0, 0)" x="63" y="992"></text><text style="text-anchor: middle;opacity:0.6" fill="rgb(160, 0, 0)" x="63" y="1010">Memory bound</text><text style="text-anchor: middle;opacity:0.6" fill="rgb(160, 0, 0)" x="714.5" y="992">Bound by compute</text><text style="text-anchor: middle;opacity:0.6" fill="rgb(160, 0, 0)" x="714.5" y="1010">and memory roofs</text><text style="text-anchor: middle;opacity:0.6" fill="rgb(160, 0, 0)" x="1366.5" y="992"></text><text style="text-anchor: middle;opacity:0.6" fill="rgb(160, 0, 0)" x="1366.5" y="1010">Compute bound</text></g><g id="SVG_0_LoopsLayer"><circle class="roofline_loop idvc_active idvcroofline_point_current idvcroofline_point_selected" cx="161" cy="427" r="8" style="fill:red !important" ></circle></g><g id="SVG_0_RoofsLayer"><line class="idvcroofline_line L1Bandwidth" x1="0" y1="243" x2="240" y2="85" style=""></line><line class="idvcroofline_line selected" x1="0" y1="243" x2="240" y2="85" style=""></line><line class="idvcroofline_line L2Bandwidth" x1="0" y1="433" x2="529" y2="85" style=""></line><line class="idvcroofline_line DRAMBandwidth" x1="0" y1="941" x2="1303" y2="85" style=""></line><rect x="115" y="163" width="6" height="6" class="roofline_roofs_cross idvc_active"></rect><line x1="118" y1="169" x2="118" y2="1026" class="roofline_coord_line"></line><rect x="404" y="163" width="6" height="6" class="roofline_roofs_cross idvc_active"></rect><line x1="407" y1="169" x2="407" y2="1026" class="roofline_coord_line"></line><rect x="557" y="163" width="6" height="6" class="roofline_roofs_cross idvc_active"></rect><line x1="560" y1="169" x2="560" y2="1026" class="roofline_coord_line"></line><rect x="1178" y="163" width="6" height="6" class="roofline_roofs_cross idvc_active"></rect><line x1="1181" y1="169" x2="1181" y2="1026" class="roofline_coord_line"></line><rect x="237" y="82" width="6" height="6" class="roofline_roofs_cross idvc_active"></rect><line x1="240" y1="88" x2="240" y2="1026" class="roofline_coord_line"></line><rect x="526" y="82" width="6" height="6" class="roofline_roofs_cross idvc_active"></rect><line x1="529" y1="88" x2="529" y2="1026" class="roofline_coord_line"></line><rect x="679" y="82" width="6" height="6" class="roofline_roofs_cross idvc_active"></rect><line x1="682" y1="88" x2="682" y2="1026" class="roofline_coord_line"></line><rect x="1300" y="82" width="6" height="6" class="roofline_roofs_cross idvc_active"></rect><line x1="1303" y1="88" x2="1303" y2="1026" class="roofline_coord_line"></line><line class="idvcroofline_line L3Bandwidth" x1="0" y1="533" x2="682" y2="85" style=""></line><line class="idvcroofline_line DPVectorAddPeak" x1="118" y1="166" x2="1422" y2="166"></line><line class="idvcroofline_line DPVectorFMAPeak selected" x1="240" y1="85" x2="1422" y2="85"></line></g><g id="SVG_0_RoofsTextLayer"><text class="idvcchart_roofline_text selected" x="0" y="0" style="dominant-baseline:text-after-edge;" transform="matrix(0.835249 -0.549872 0.549872 0.835249 9.3695 235.635)">L1 Bandwidth: 543.68 GB/sec</text><text class="idvcchart_roofline_text" x="0" y="0" style="dominant-baseline:text-after-edge;" transform="matrix(0.835436 -0.549588 0.549588 0.835436 9.36844 425.64)">L2 Bandwidth: 176.42 GB/sec</text><text class="idvcchart_roofline_text" x="0" y="0" style="dominant-baseline:text-after-edge;" transform="matrix(0.835781 -0.549063 0.549063 0.835781 9.35173 933.66)">DRAM Bandwidth: 8.62 GB/sec</text><text class="idvcchart_roofline_text" x="0" y="0" style="dominant-baseline:text-after-edge;" transform="matrix(0.835802 -0.549031 0.549031 0.835802 9.3782 525.643)">L3 Bandwidth: 97.16 GB/sec</text><text class="idvcchart_roofline_text" x="0" y="0" style="text-anchor: end; dominant-baseline:text-after-edge;" transform="matrix(1 0 0 1 1418 165)">DP Vector Add Peak: 50.99 GFLOPS</text><text class="idvcchart_roofline_text selected" x="0" y="0" style="text-anchor: end; dominant-baseline:text-after-edge;" transform="matrix(1 0 0 1 1418 84)">DP Vector FMA Peak: 82.05 GFLOPS</text></g><g id="SVG_0_ForegroundLayer"><line x1="103" y1="741" x2="143" y2="741" class="idvcchart_roofline_center_marker"></line><line x1="123" y1="721" x2="123" y2="761" class="idvcchart_roofline_center_marker"></line><use xlink:href="#SVG_0_expanderTemplate" class="roofline_expander idvc_active" x="-118.25" y="-105.5"></use></g><rect x="0" y="0" width="0" height="0" class="idvcchart_selection"></rect><defs><filter id="SVG_0_TextBackground" x="0" y="0" width="1" height="1"><feFlood flood-color="white"></feFlood><feComposite in="SourceGraphic"></feComposite></filter><linearGradient id="SVG_0_EllipsisGradient1" gradientUnits="userSpaceOnUse" y1="0" y2="0" x1="4" x2="122"><stop offset="70%" stop-color="rgb(160, 0, 0)" stop-opacity="0.6"></stop><stop offset="100%" stop-color="rgb(160, 0, 0)" stop-opacity="0"></stop></linearGradient><linearGradient id="SVG_0_EllipsisGradient3" gradientUnits="userSpaceOnUse" y1="0" y2="0" x1="1307" x2="1426"><stop offset="70%" stop-color="rgb(160, 0, 0)" stop-opacity="0.6"></stop><stop offset="100%" stop-color="rgb(160, 0, 0)" stop-opacity="0"></stop></linearGradient></defs><defs id="SVG_0_line_arrows"><marker id="SVG_0_loops_matching_arrow" markerWidth="9" markerHeight="9" refX="9" refY="5" orient="auto"><path d="M 1 1 L 1 8 L 8 5 L 1 1" class="idvcroofline_loops_matching_arrow"></path></marker><marker id="SVG_0_ChildArrow" markerWidth="9" markerHeight="9" refX="9" refY="5" orient="auto"><path d="M 1 1 L 1 8 L 8 5 L 1 1" class="roofline_child_arrow"></path></marker><marker id="SVG_0_ParentArrow" markerWidth="9" markerHeight="9" refX="0" refY="5" orient="auto"><path d="M 1 1 L 1 8 L 8 5 L 1 1" class="roofline_parent_arrow"></path></marker></defs><defs id="SVG_0_fill_patterns"><pattern id="SVG_0_loopFill-6-4-cl" patternContentUnits="objectBoundingBox" width="100%" height="100%"><circle cx=".5" cy=".5" r=".5" fill="white"></circle><circle cx=".5" cy=".5" r="0.3333333333333333" fill="green" stroke="black" stroke-width="0.05"></circle></pattern><pattern id="SVG_0_loopFill-8-4-cl" patternContentUnits="objectBoundingBox" width="100%" height="100%"><circle cx=".5" cy=".5" r=".5" fill="white"></circle><circle cx=".5" cy=".5" r="0.25" fill="green" stroke="black" stroke-width="0.05"></circle></pattern><pattern id="SVG_0_loopFill-8-6-cl" patternContentUnits="objectBoundingBox" width="100%" height="100%"><circle cx=".5" cy=".5" r=".5" fill="white"></circle><circle cx=".5" cy=".5" r="0.375" fill="yellow" stroke="black" stroke-width="0.05"></circle></pattern></defs><defs><g id="SVG_0_expanderTemplate"><rect x="0" y="0" width="11" height="11" class=""></rect><line x1="2" y1="5.5" x2="9" y2="5.5" class=""></line><line x1="5.5" y1="2" x2="5.5" y2="9" class=""></line></g></defs><text x="2" y="2" style="font-size: 90%; writing-mode: tb; dominant-baseline: text-after-edge">GFLOPS</text><text x="1418" y="1024" style="font-size: 90%; text-anchor: end; dominant-baseline: text-after-edge"><tspan>FLOP/Byte</tspan><tspan style="font-size: 90%;"> (Arithmetic Intensity)</tspan></text>    </svg>  </g>  </svg>